<?xml version="1.0" encoding="UTF-8" standalone="no"?>
<!-- Created with Inkscape (http://www.inkscape.org/) -->

<svg
   xmlns:dc="http://purl.org/dc/elements/1.1/"
   xmlns:cc="http://creativecommons.org/ns#"
   xmlns:rdf="http://www.w3.org/1999/02/22-rdf-syntax-ns#"
   xmlns:svg="http://www.w3.org/2000/svg"
   xmlns="http://www.w3.org/2000/svg"
   xmlns:sodipodi="http://sodipodi.sourceforge.net/DTD/sodipodi-0.dtd"
   xmlns:inkscape="http://www.inkscape.org/namespaces/inkscape"
   width="144.78465mm"
   height="43.403603mm"
   viewBox="0 0 144.78465 43.403603"
   version="1.1"
   id="svg8"
   sodipodi:docname="Qsalto dark.svg"
   inkscape:version="0.92.4 (5da689c313, 2019-01-14)">
  <defs
     id="defs2" />
  <sodipodi:namedview
     id="base"
     pagecolor="#ffffff"
     bordercolor="#666666"
     borderopacity="1.0"
     inkscape:pageopacity="0.0"
     inkscape:pageshadow="2"
     inkscape:zoom="2"
     inkscape:cx="213.48722"
     inkscape:cy="33.161774"
     inkscape:document-units="mm"
     inkscape:current-layer="layer1"
     showgrid="true"
     showguides="false"
     fit-margin-top="1"
     fit-margin-left="1"
     fit-margin-right="1"
     fit-margin-bottom="1"
     inkscape:window-width="1920"
     inkscape:window-height="1018"
     inkscape:window-x="-8"
     inkscape:window-y="-8"
     inkscape:window-maximized="1">
    <inkscape:grid
       type="xygrid"
       id="grid4732"
       originx="-1.1809278"
       originy="-253.72282" />
  </sodipodi:namedview>
  <metadata
     id="metadata5">
    <rdf:RDF>
      <cc:Work
         rdf:about="">
        <dc:format>image/svg+xml</dc:format>
        <dc:type
           rdf:resource="http://purl.org/dc/dcmitype/StillImage" />
        <dc:title></dc:title>
      </cc:Work>
    </rdf:RDF>
  </metadata>
  <g
     inkscape:label="Ebene 1"
     inkscape:groupmode="layer"
     id="layer1"
     transform="translate(-1.1809278,0.12639715)">
    <path
       style="fill:#ffffff;stroke:#fffffa;stroke-width:2.54299998;stroke-linecap:butt;stroke-linejoin:miter;stroke-miterlimit:4;stroke-dasharray:none;stroke-opacity:1"
       d="M 97.093438,17.070857 V 31.083258"
       id="path4700-7"
       inkscape:connector-curvature="0" />
    <path
       style="fill:#ffffff;stroke:#fffffa;stroke-width:2.54299998;stroke-linecap:butt;stroke-linejoin:miter;stroke-miterlimit:4;stroke-dasharray:none;stroke-opacity:1"
       d="M 110.86819,0.87360585 V 31.102278"
       id="path4700-8"
       inkscape:connector-curvature="0" />
    <path
       style="fill:#ffffff;stroke:#fffffa;stroke-width:2.543;stroke-linecap:butt;stroke-linejoin:miter;stroke-miterlimit:4;stroke-dasharray:none;stroke-opacity:1"
       d="M 103.8898,0.87360285 V 31.102278"
       id="path4700"
       inkscape:connector-curvature="0" />
    <path
       style="fill:#ffffff;stroke:#fffffa;stroke-width:2.54299998;stroke-linecap:butt;stroke-linejoin:miter;stroke-miterlimit:4;stroke-dasharray:none;stroke-opacity:1"
       d="m 78.426686,28.118198 c -2.4873,-0.60136 -8.77879,-3.94127 -8.97924,-12.40037 -0.18205,-7.6824399 6.73731,-11.7797699 10.1215,-11.7797699"
       id="path4575-8"
       inkscape:connector-curvature="0"
       sodipodi:nodetypes="csc" />
    <path
       sodipodi:type="star"
       style="fill:#ffffff;fill-opacity:1;fill-rule:nonzero;stroke:none;stroke-width:1.06500006;stroke-linejoin:round;stroke-miterlimit:4;stroke-dasharray:none;stroke-dashoffset:0;stroke-opacity:1"
       id="path4577-8"
       sodipodi:sides="3"
       sodipodi:cx="139.51704"
       sodipodi:cy="101.22564"
       sodipodi:r1="3.6901102"
       sodipodi:r2="1.8450553"
       sodipodi:arg1="0.87605805"
       sodipodi:arg2="1.9232556"
       inkscape:flatsided="false"
       inkscape:rounded="0"
       inkscape:randomized="0"
       d="m 141.8794,104.06046 -2.99928,-1.10319 -2.99928,-1.10319 2.45503,-2.045851 2.45503,-2.045856 0.54425,3.149047 z"
       inkscape:transform-center-x="-0.34588771"
       inkscape:transform-center-y="-0.60663468"
       transform="matrix(0.85716764,-0.51503831,0.51504239,0.85717449,-94.734606,12.708638)" />
    <path
       style="fill:#ffffff;fill-opacity:1;fill-rule:nonzero;stroke:none;stroke-width:9.88803101;stroke-linejoin:round;stroke-miterlimit:4;stroke-dasharray:none;stroke-dashoffset:0;stroke-opacity:1"
       d="M 81.537109 4.7519531 C 64.232843 4.7519531 46.927392 11.381201 33.667969 24.640625 L 23.667969 34.640625 C -2.8508786 61.159472 -2.8508786 103.85811 23.667969 130.37695 L 33.667969 140.37695 C 60.186816 166.8958 102.88545 166.8958 129.4043 140.37695 L 139.4043 130.37695 C 165.92314 103.85811 165.92314 61.159472 139.4043 34.640625 L 129.4043 24.640625 C 116.14487 11.381201 98.841375 4.7519531 81.537109 4.7519531 z M 82.410156 18.527344 A 63.993163 63.993163 0 0 1 146.40234 82.521484 A 63.993163 63.993163 0 0 1 82.410156 146.51367 A 63.993163 63.993163 0 0 1 18.416016 82.521484 A 63.993163 63.993163 0 0 1 82.410156 18.527344 z "
       transform="matrix(0.26458333,0,0,0.26458333,1.1809278,-0.12639715)"
       id="rect4670" />
    <circle
       style="fill:#ffffff;fill-opacity:1;fill-rule:nonzero;stroke:none;stroke-width:0.12;stroke-linejoin:round;stroke-miterlimit:4;stroke-dasharray:none;stroke-dashoffset:0;stroke-opacity:1"
       id="path4554"
       cx="83.527023"
       cy="3.4072344"
       r="2.2049735" />
    <circle
       style="fill:#ffffff;fill-opacity:1;fill-rule:nonzero;stroke:none;stroke-width:0.12;stroke-linejoin:round;stroke-miterlimit:4;stroke-dasharray:none;stroke-dashoffset:0;stroke-opacity:1"
       id="path4554-7"
       cx="83.059296"
       cy="28.597399"
       r="2.2049735" />
    <path
       style="fill:#ffffff;stroke:#fffffa;stroke-width:2.54299998;stroke-linecap:butt;stroke-linejoin:miter;stroke-miterlimit:4;stroke-dasharray:none;stroke-opacity:1"
       d="m 88.111706,4.1699181 c 2.4873,0.60136 8.778782,3.94127 8.979232,12.4003699 0.18205,7.68244 -6.737302,11.77977 -10.121492,11.77977"
       id="path4575"
       inkscape:connector-curvature="0"
       sodipodi:nodetypes="csc" />
    <path
       sodipodi:type="star"
       style="fill:#ffffff;fill-opacity:1;fill-rule:nonzero;stroke:none;stroke-width:1.06500006;stroke-linejoin:round;stroke-miterlimit:4;stroke-dasharray:none;stroke-dashoffset:0;stroke-opacity:1"
       id="path4577"
       sodipodi:sides="3"
       sodipodi:cx="139.51704"
       sodipodi:cy="101.22564"
       sodipodi:r1="3.6901102"
       sodipodi:r2="1.8450553"
       sodipodi:arg1="0.87605805"
       sodipodi:arg2="1.9232556"
       inkscape:flatsided="false"
       inkscape:rounded="0"
       inkscape:randomized="0"
       d="m 141.8794,104.06046 -2.99928,-1.10319 -2.99928,-1.10319 2.45503,-2.045851 2.45503,-2.045856 0.54425,3.149047 z"
       inkscape:transform-center-x="0.34588819"
       inkscape:transform-center-y="0.60663509"
       transform="matrix(-0.85716764,0.51503831,-0.5150424,-0.8571745,261.273,19.579478)" />
    <path
       style="fill:#ffffff;fill-opacity:1;fill-rule:nonzero;stroke:#fffffa;stroke-width:2.54299998;stroke-linejoin:round;stroke-miterlimit:4;stroke-dasharray:none;stroke-dashoffset:0;stroke-opacity:1"
       d="m 130.4867,3.4025481 c -7.29424,0 -13.20738,5.9131413 -13.20738,13.2073799 0,7.29424 5.91314,13.20739 13.20738,13.20739 7.29424,0 13.20738,-5.91315 13.20738,-13.20739 0,-7.2942386 -5.91314,-13.2073799 -13.20738,-13.2073799 z"
       id="path4646"
       inkscape:connector-curvature="0"
       sodipodi:nodetypes="sssss" />
    <path
       style="fill:#ffffff;stroke:#fffffa;stroke-width:2.54299998;stroke-linecap:butt;stroke-linejoin:miter;stroke-miterlimit:4;stroke-dasharray:none;stroke-opacity:1"
       d="m 65.065146,3.2924081 c -5.46157,0.007 -9.23269,-0.76724 -12.64038,3.12207 -2.191609,3.2646313 -0.66283,7.9873299 5.41482,9.4250399 6.49487,1.5364 9.30254,5.5157 6.86041,10.52165 -2.42284,4.2724 -8.36438,3.26243 -14.572469,3.11793"
       id="path4664"
       inkscape:connector-curvature="0"
       sodipodi:nodetypes="ccscc" />
    <path
       style="fill:#ffffff;stroke:#fffffa;stroke-width:2.54299998;stroke-linecap:butt;stroke-linejoin:miter;stroke-miterlimit:4;stroke-dasharray:none;stroke-opacity:1"
       d="m 35.739228,34.397168 5.986835,5.98684"
       id="path4698"
       inkscape:connector-curvature="0" />
    <path
       style="fill:#ffffff;stroke:#ffffff;stroke-width:2.54299998;stroke-linecap:butt;stroke-linejoin:miter;stroke-miterlimit:4;stroke-dasharray:none;stroke-opacity:1"
       d="m 107.21646,10.167098 c 7.40833,0 7.40833,0 7.40833,0"
       id="path4734"
       inkscape:connector-curvature="0" />
  </g>
</svg>
