<?xml version="1.0" standalone="no"?>
<!DOCTYPE svg PUBLIC "-//W3C//DTD SVG 20010904//EN"
 "http://www.w3.org/TR/2001/REC-SVG-20010904/DTD/svg10.dtd">
<svg version="1.0" xmlns="http://www.w3.org/2000/svg"
 width="976.000000pt" height="976.000000pt" viewBox="0 0 976.000000 976.000000"
 preserveAspectRatio="xMidYMid meet">
<metadata>
Created by potrace 1.14, written by Peter Selinger 2001-2017
</metadata>
<g transform="translate(0.000000,976.000000) scale(0.100000,-0.100000)"
fill="#000000" stroke="none">
<path d="M4842 9408 c-77 -12 -201 -63 -268 -110 -62 -43 -164 -140 -164 -155
0 -5 -9 -19 -21 -31 -11 -13 -27 -38 -34 -57 -8 -18 -19 -36 -25 -40 -5 -3
-10 -16 -10 -29 0 -12 -5 -27 -12 -34 -7 -7 -9 -12 -5 -12 4 0 3 -10 -4 -21
-6 -12 -12 -36 -13 -54 -2 -17 -5 -35 -8 -41 -6 -11 -3 -162 5 -221 8 -53 62
-194 87 -226 11 -14 20 -28 20 -31 0 -21 153 -171 192 -188 15 -7 28 -15 28
-19 0 -14 165 -75 220 -82 14 -1 30 -5 35 -8 13 -7 148 -4 206 4 50 8 171 45
179 56 3 3 25 16 50 29 103 51 201 154 267 280 75 142 95 304 59 477 -12 60
-64 167 -119 248 -70 104 -263 233 -372 250 -11 1 -25 6 -31 10 -18 11 -203
15 -262 5z"/>
<path d="M7609 9076 c-2 -2 -22 -6 -44 -10 -33 -4 -199 -36 -270 -52 -11 -2
-36 -6 -55 -9 -19 -3 -45 -7 -57 -10 -13 -3 -33 -7 -45 -10 -13 -3 -38 -8 -57
-11 -18 -3 -42 -8 -52 -10 -52 -11 -66 -14 -104 -20 -22 -3 -58 -9 -80 -14
-22 -5 -53 -11 -70 -14 -28 -5 -45 -9 -105 -21 -127 -25 -182 -33 -201 -28
-11 3 -26 -1 -35 -8 -9 -7 -21 -14 -28 -15 -56 -9 -88 -15 -132 -24 -28 -6
-64 -13 -80 -15 -16 -2 -30 -4 -31 -6 -4 -2 -12 -4 -68 -14 -27 -4 -57 -10
-65 -12 -8 -2 -26 -5 -40 -7 -14 -3 -43 -8 -65 -11 -22 -4 -44 -8 -50 -9 -5
-1 -14 -4 -20 -7 -5 -3 -25 -6 -44 -8 -18 -1 -41 -6 -51 -11 -9 -5 -21 -6 -25
-2 -4 4 -3 -3 4 -15 6 -12 17 -26 24 -30 6 -4 28 -28 48 -53 20 -25 47 -56 59
-70 12 -14 41 -47 64 -74 22 -26 52 -61 66 -76 14 -15 43 -49 65 -75 22 -27
45 -53 50 -59 14 -16 136 -155 165 -190 14 -17 35 -41 48 -53 12 -13 22 -26
22 -28 0 -2 10 -15 23 -27 12 -13 45 -50 72 -83 28 -32 59 -69 70 -81 11 -12
29 -33 39 -46 11 -13 45 -52 76 -88 31 -36 68 -78 81 -94 13 -16 35 -41 49
-55 14 -15 43 -49 65 -76 22 -27 47 -56 55 -65 8 -9 37 -42 64 -73 l50 -58 29
83 c15 46 31 90 34 98 3 8 7 20 8 25 0 6 4 17 7 25 10 25 50 134 53 145 1 6 5
18 8 27 4 10 9 25 12 34 4 13 10 12 37 -7 65 -46 233 -175 258 -199 15 -14 49
-44 76 -66 47 -40 244 -236 281 -280 10 -12 34 -41 53 -64 19 -24 40 -48 45
-54 44 -47 255 -346 255 -362 0 -3 8 -18 19 -32 35 -50 147 -265 194 -372 51
-117 75 -180 70 -180 -3 0 -1 -6 4 -12 8 -10 31 -68 38 -98 1 -3 4 -12 8 -20
45 -113 127 -454 152 -636 3 -19 7 -51 10 -71 10 -62 18 -145 30 -293 13 -153
7 -527 -9 -650 -2 -14 -7 -48 -10 -75 -12 -92 -24 -157 -48 -265 -14 -66 -15
-69 -18 -75 -1 -3 -4 -9 -5 -15 -1 -5 -3 -11 -5 -12 -1 -2 -3 -12 -4 -23 -4
-27 -57 -197 -66 -210 -4 -5 -15 -36 -24 -67 -10 -32 -22 -61 -27 -64 -5 -3
-7 -9 -4 -14 3 -5 1 -11 -5 -15 -5 -3 -10 -15 -10 -26 0 -10 -4 -19 -10 -19
-5 0 -10 -6 -10 -13 0 -6 -11 -33 -25 -60 -14 -26 -22 -47 -19 -47 4 0 1 -8
-7 -17 -8 -10 -24 -36 -34 -58 -11 -22 -23 -42 -26 -45 -3 -3 -8 -12 -12 -21
-3 -9 -31 -57 -62 -105 -30 -49 -61 -98 -68 -109 -17 -27 -153 -209 -169 -226
-7 -8 -26 -32 -43 -54 -29 -40 -310 -324 -375 -380 -20 -16 -64 -52 -100 -80
-36 -27 -67 -52 -70 -55 -23 -24 -119 -88 -124 -83 -3 4 -6 2 -6 -3 0 -22
-390 -254 -426 -254 -7 0 -14 -4 -16 -8 -1 -4 -32 -20 -68 -35 -36 -16 -73
-33 -84 -38 -10 -6 -26 -12 -35 -15 -16 -4 -161 -55 -191 -67 -22 -9 -169 -45
-210 -52 -19 -3 -42 -8 -50 -10 -23 -7 -120 -17 -162 -17 -21 0 -35 -4 -33 -8
3 -5 1 -11 -5 -15 -6 -4 -7 -11 -3 -18 3 -6 6 -40 5 -76 -3 -76 -3 -69 1 -141
2 -30 -1 -63 -6 -74 -7 -13 -6 -16 3 -11 9 6 9 2 1 -14 -7 -11 -8 -21 -4 -21
10 0 9 -72 -1 -88 -4 -7 -3 -12 1 -12 10 0 10 -61 -1 -78 -4 -7 -4 -12 1 -12
4 0 7 -21 5 -47 -1 -27 -2 -55 -2 -63 0 -8 1 -32 1 -52 0 -42 -1 -42 94 -38
33 2 75 4 93 4 17 1 32 3 32 6 0 3 12 6 28 6 32 2 117 12 117 14 0 2 10 4 60
14 70 13 168 37 176 42 5 3 18 7 29 9 21 4 136 40 182 57 15 6 28 9 30 7 2 -1
14 4 28 11 14 8 28 15 33 16 4 1 10 3 15 4 4 1 10 2 15 1 4 0 7 3 7 8 0 5 12
12 27 16 30 7 73 26 203 88 47 23 88 40 93 39 4 -1 7 2 7 7 0 5 10 13 23 17
12 3 30 13 40 22 9 8 17 12 17 9 0 -7 270 154 317 189 17 13 36 24 41 24 6 0
12 3 14 8 2 4 37 32 78 61 41 30 100 74 130 98 30 24 60 47 65 51 100 78 375
338 375 354 0 4 7 8 15 8 8 0 15 4 15 9 0 4 15 24 33 43 28 31 64 72 138 158
12 14 41 51 66 83 24 31 45 57 46 57 1 0 2 -447 2 -993 l0 -994 385 1 385 1
-1 2245 c0 1235 -3 2295 -7 2355 -10 161 -15 220 -28 320 -7 50 -13 99 -14
110 -1 11 -5 31 -8 45 -4 14 -9 41 -11 60 -14 100 -24 155 -26 155 -2 0 -5 14
-13 55 -20 100 -24 118 -27 125 -1 3 -3 9 -4 14 0 5 -4 12 -8 16 -4 4 -4 13
-2 20 3 7 1 22 -5 33 -5 10 -12 30 -15 43 -2 13 -17 65 -31 114 -15 50 -28 95
-29 100 -2 6 -9 24 -15 40 -12 27 -43 122 -45 135 -1 3 -4 10 -8 15 -4 6 -18
40 -31 75 -25 66 -50 125 -93 214 -13 28 -24 55 -24 62 0 6 -7 17 -15 24 -9 7
-13 15 -11 18 3 2 -6 22 -20 43 -13 21 -24 41 -24 45 0 3 -19 38 -42 77 -23
40 -43 74 -43 77 0 3 -10 19 -23 37 -12 17 -22 33 -22 36 0 3 -18 33 -40 66
-22 33 -40 64 -40 70 0 5 -4 11 -8 13 -4 2 -23 25 -42 53 -37 53 -94 130 -113
155 -7 8 -30 37 -52 65 -22 27 -43 54 -48 60 -61 81 -319 351 -409 429 -18 15
-52 46 -75 67 -23 21 -44 39 -47 39 -3 0 -20 14 -38 30 -45 42 -238 187 -323
244 -38 25 -77 51 -85 56 -8 6 -29 19 -47 30 l-32 19 20 58 c11 32 22 63 23
68 3 10 8 23 29 80 6 17 13 35 14 40 1 6 20 60 41 120 22 61 42 119 46 130 4
11 16 42 27 70 10 27 15 53 11 57 -5 5 -10 7 -13 4z"/>
<path d="M3698 8955 c-2 -1 -47 -5 -101 -9 -55 -3 -102 -8 -105 -10 -4 -2 -27
-7 -52 -10 -42 -6 -62 -9 -116 -20 -126 -25 -358 -96 -451 -137 -24 -11 -47
-19 -53 -19 -6 0 -18 -4 -28 -9 -9 -6 -64 -31 -122 -57 -155 -69 -440 -221
-460 -245 -3 -3 -20 -14 -39 -24 -19 -9 -39 -21 -45 -26 -6 -5 -49 -36 -96
-69 -47 -33 -93 -65 -103 -72 -47 -33 -185 -143 -251 -201 -300 -260 -530
-522 -743 -843 -51 -78 -93 -146 -93 -153 0 -6 -3 -11 -7 -11 -5 0 -13 -10
-19 -23 -6 -12 -28 -53 -49 -92 -53 -99 -125 -243 -128 -257 -1 -7 -8 -19 -14
-26 -7 -7 -13 -20 -13 -27 0 -8 -11 -38 -23 -67 -24 -52 -61 -148 -62 -158 0
-3 -3 -9 -6 -15 -7 -11 -41 -124 -43 -140 -1 -5 -4 -12 -7 -15 -4 -3 -10 -23
-13 -44 -4 -22 -11 -45 -17 -53 -6 -7 -9 -13 -6 -13 3 0 -1 -24 -10 -52 -8
-29 -17 -63 -19 -75 -6 -34 -11 -60 -28 -138 -76 -358 -91 -814 -42 -1324 4
-35 8 -67 10 -70 2 -3 7 -37 11 -76 4 -38 8 -72 10 -75 2 -4 6 -27 9 -52 3
-25 8 -52 10 -59 3 -8 7 -30 10 -49 3 -19 15 -75 26 -125 11 -49 23 -101 25
-113 3 -13 13 -49 21 -80 9 -32 19 -69 21 -84 3 -16 10 -28 15 -28 5 0 7 -4 4
-9 -8 -12 96 -311 159 -461 79 -186 196 -410 318 -605 45 -73 160 -238 204
-295 137 -174 189 -234 332 -385 83 -86 224 -216 332 -307 79 -66 199 -158
205 -158 3 0 12 -6 20 -14 8 -8 73 -54 144 -101 72 -48 130 -88 130 -91 0 -2
-4 -12 -9 -22 -15 -29 -151 -422 -151 -438 0 -7 -5 -14 -12 -14 -6 0 -9 -3 -5
-6 3 -3 -5 -34 -18 -69 -15 -39 -20 -65 -14 -67 6 -2 72 9 147 23 75 15 151
29 167 32 28 5 107 20 165 32 14 3 36 7 50 10 25 5 51 10 100 20 71 14 138 26
170 30 14 2 25 4 25 5 0 4 128 24 138 22 4 -1 7 3 7 9 0 5 4 8 9 5 5 -4 38 0
74 7 35 8 77 13 93 11 15 -2 34 2 41 7 12 11 144 41 160 38 4 -1 15 1 23 4 8
3 53 13 100 22 47 9 96 18 110 21 14 3 39 7 55 9 17 2 30 4 30 5 0 1 7 3 15 5
27 5 84 16 110 20 14 2 34 6 45 9 11 2 28 5 38 5 16 1 16 3 5 20 -12 17 -96
116 -123 145 -11 12 -176 205 -210 245 -11 13 -33 39 -50 57 -16 18 -39 43
-49 56 -11 13 -47 55 -80 93 -33 39 -67 78 -76 88 -71 85 -144 168 -178 203
-18 19 -29 34 -26 34 4 0 -7 13 -24 28 -18 16 -32 32 -32 35 0 3 -10 17 -22
29 -13 13 -45 50 -73 83 -27 32 -61 71 -75 86 -14 15 -43 48 -65 75 -45 54
-84 99 -136 157 l-37 41 -7 -35 c-4 -18 -11 -38 -15 -44 -4 -5 -17 -44 -30
-85 -13 -41 -27 -82 -31 -90 -4 -8 -20 -54 -35 -102 -16 -49 -34 -88 -41 -88
-7 0 -22 9 -33 20 -11 11 -20 17 -20 14 0 -4 -117 81 -130 96 -3 3 -41 34 -85
70 -44 36 -89 74 -101 85 -12 11 -39 36 -60 56 -87 81 -210 215 -345 377 -11
12 -19 27 -19 32 0 6 -3 10 -7 10 -5 0 -19 17 -33 38 -14 20 -28 39 -31 42 -8
6 -129 190 -129 195 0 2 -18 33 -40 67 -22 35 -40 68 -40 75 0 6 -4 13 -9 15
-5 1 -11 10 -13 18 -2 8 -5 17 -8 20 -6 6 -67 131 -98 200 -21 48 -90 221
-111 280 -41 114 -124 424 -137 510 -2 14 -8 46 -13 71 -6 26 -12 64 -15 85
-3 22 -8 53 -10 69 -2 17 -7 59 -11 94 -3 35 -8 78 -10 95 -11 80 -18 256 -17
411 0 164 4 232 18 360 11 108 13 120 14 120 2 0 7 26 14 72 14 99 64 298 103
412 14 41 26 79 27 85 1 6 7 20 13 31 6 11 11 23 12 28 0 4 8 24 17 45 9 20
17 42 18 48 1 7 8 19 15 28 7 9 11 16 8 16 -17 0 214 420 235 428 4 2 8 8 8
12 0 14 112 170 122 170 4 0 8 5 8 11 0 10 46 72 85 114 11 12 48 53 82 92
108 121 235 241 407 384 102 84 339 244 446 300 36 19 67 36 70 39 8 9 190 96
261 125 35 14 73 30 84 34 28 12 89 36 95 37 9 1 94 25 110 30 8 3 16 5 17 5
2 0 17 5 35 10 91 27 248 52 330 52 26 1 27 2 24 56 -1 31 1 66 6 79 4 12 4
22 0 22 -9 0 -7 104 2 119 4 6 3 11 -3 11 -10 0 -9 19 2 38 5 6 4 12 0 12 -10
0 -10 61 1 78 4 7 4 12 -1 12 -4 0 -8 14 -8 30 0 17 4 30 8 30 4 0 4 8 -1 18
-9 19 -8 91 1 116 4 9 3 16 -1 16 -9 0 -7 104 2 119 4 6 0 11 -11 12 -10 0
-26 2 -35 4 -9 2 -18 2 -20 0z"/>
<path d="M4714 1774 c-119 -20 -244 -73 -321 -136 -48 -40 -132 -131 -139
-150 -3 -10 -10 -18 -15 -18 -5 0 -9 -5 -9 -10 0 -6 -11 -28 -25 -50 -14 -22
-23 -40 -20 -40 3 0 -1 -12 -9 -27 -51 -102 -58 -323 -13 -456 29 -82 74 -169
107 -204 11 -12 20 -24 20 -27 0 -7 69 -73 110 -106 44 -35 168 -100 191 -100
9 0 19 -3 23 -7 3 -4 12 -8 19 -9 7 -2 35 -7 62 -13 67 -13 226 -7 299 12 191
51 348 183 445 375 17 34 28 62 25 62 -4 0 -2 6 4 13 6 6 11 15 11 20 1 4 1 8
2 10 1 1 2 13 4 27 2 14 6 43 10 65 27 147 -11 317 -104 464 -38 60 -191 217
-191 196 0 -4 -7 1 -16 9 -8 9 -22 16 -30 16 -8 0 -14 3 -14 8 0 9 -84 46
-135 59 -109 27 -199 32 -291 17z"/>
</g>
</svg>
